<svg width="448" xmlns="http://www.w3.org/2000/svg" height="448" fill="none"><defs><linearGradient id="a" x1=".5" y1="0" x2=".5" y2="1"><stop offset="0" stop-color="#ff512f"/><stop offset="1" stop-color="#dd2476"/></linearGradient><pattern patternUnits="userSpaceOnUse" x="0" y="0" width="448" height="448" id="b"><rect width="448" height="448" style="fill: url(&quot;#a&quot;);"/></pattern></defs><rect rx="50" ry="50" transform="matrix(1.000000, 0.000000, 0.000000, 1.000000, 0.000000, 0.000000)" width="448" height="448" fill="url(#b)" class="fills"/><g class="strokes"><rect rx="50" ry="50" transform="matrix(1.000000, 0.000000, 0.000000, 1.000000, 0.000000, 0.000000)" width="448" height="448" style="fill: none;" class="stroke-shape"/></g><rect rx="10" ry="10" x="71.745" y="101.891" transform="matrix(1.000000, 0.000000, 0.000000, 1.000000, 0.000000, 0.000000)" width="131.979" height="21" style="fill: rgb(255, 255, 255); fill-opacity: 1;" class="fills"/><g class="strokes"><rect rx="10" ry="10" x="71.745" y="101.891" transform="matrix(1.000000, 0.000000, 0.000000, 1.000000, 0.000000, 0.000000)" width="131.979" height="21" style="fill: none;" class="stroke-shape"/></g><rect rx="10" ry="10" x="236.308" y="148.124" transform="matrix(1.000000, 0.000000, 0.000000, 1.000000, 0.000000, 0.000000)" width="146.741" height="21.107" style="fill: rgb(255, 255, 255); fill-opacity: 1;" class="fills"/><g class="strokes"><rect rx="10" ry="10" x="236.308" y="148.124" transform="matrix(1.000000, 0.000000, 0.000000, 1.000000, 0.000000, 0.000000)" width="146.741" height="21.107" style="fill: none;" class="stroke-shape"/></g><rect rx="10" ry="10" x="225.252" y="101.891" transform="matrix(1.000000, 0.000000, 0.000000, 1.000000, 0.000000, 0.000000)" width="84.426" height="21.107" style="fill: rgb(255, 255, 255); fill-opacity: 1;" class="fills"/><g class="strokes"><rect rx="10" ry="10" x="225.252" y="101.891" transform="matrix(1.000000, 0.000000, 0.000000, 1.000000, 0.000000, 0.000000)" width="84.426" height="21.107" style="fill: none;" class="stroke-shape"/></g><rect rx="10" ry="10" x="331.287" y="101.891" transform="matrix(1.000000, 0.000000, 0.000000, 1.000000, 0.000000, 0.000000)" width="51.259" height="21.107" style="fill: rgb(255, 255, 255); fill-opacity: 1;" class="fills"/><g class="strokes"><rect rx="10" ry="10" x="331.287" y="101.891" transform="matrix(1.000000, 0.000000, 0.000000, 1.000000, 0.000000, 0.000000)" width="51.259" height="21.107" style="fill: none;" class="stroke-shape"/></g><rect rx="10" ry="10" x="152.724" y="148.891" transform="matrix(1.000000, 0.000000, 0.000000, 1.000000, 0.000000, 0.000000)" width="51" height="21" style="fill: rgb(255, 255, 255); fill-opacity: 1;" class="fills"/><g class="strokes"><rect rx="10" ry="10" x="152.724" y="148.891" transform="matrix(1.000000, 0.000000, 0.000000, 1.000000, 0.000000, 0.000000)" width="51" height="21" style="fill: none;" class="stroke-shape"/></g><rect rx="10" ry="10" x="71.745" y="148.124" transform="matrix(1.000000, 0.000000, 0.000000, 1.000000, 0.000000, 0.000000)" width="58.416" height="21.107" style="fill: rgb(255, 255, 255); fill-opacity: 1;" class="fills"/><g class="strokes"><rect rx="10" ry="10" x="71.745" y="148.124" transform="matrix(1.000000, 0.000000, 0.000000, 1.000000, 0.000000, 0.000000)" width="58.416" height="21.107" style="fill: none;" class="stroke-shape"/></g><rect rx="10" ry="10" x="64.951" y="278.769" transform="matrix(1.000000, 0.000000, 0.000000, 1.000000, 0.000000, 0.000000)" width="58.416" height="21.107" style="fill: rgb(255, 255, 255); fill-opacity: 1;" class="fills"/><g class="strokes"><rect rx="10" ry="10" x="64.951" y="278.769" transform="matrix(1.000000, 0.000000, 0.000000, 1.000000, 0.000000, 0.000000)" width="58.416" height="21.107" style="fill: none;" class="stroke-shape"/></g><path d="M83.587,239.853L117.952,205.487L154.587,239.853" class="fills"/><g class="strokes"><g class="stroke-shape"><defs><marker refX="3" fill-opacity="1" orient="auto-start-reverse" id="c" viewBox="0 0 6 6" fill="#fff" refY="3" markerWidth="6" markerHeight="6"><path d="M 3 2.5 A 0.5 0.5 0 0 1 3 3.5"/></marker></defs><path d="M83.587,239.853L117.952,205.487L154.587,239.853" style="fill: none; stroke-width: 21; stroke: rgb(255, 255, 255); stroke-opacity: 1; marker-start: url(&quot;#c&quot;);"/></g></g><rect rx="10" ry="10" x="145.93" y="278.109" transform="matrix(1.000000, 0.000000, 0.000000, 1.000000, 0.000000, 0.000000)" width="51" height="21" style="fill: rgb(255, 255, 255); fill-opacity: 1;" class="fills"/><g class="strokes"><rect rx="10" ry="10" x="145.93" y="278.109" transform="matrix(1.000000, 0.000000, 0.000000, 1.000000, 0.000000, 0.000000)" width="51" height="21" style="fill: none;" class="stroke-shape"/></g><path d="M153.754,239.183L188.120,204.817L224.754,239.183" class="fills"/><g class="strokes"><g class="stroke-shape"><defs><marker refX="3" fill-opacity="1" orient="auto-start-reverse" id="d" viewBox="0 0 6 6" fill="#fff" refY="3" markerWidth="6" markerHeight="6"><rect x="3" y="2.5" width=".5" height="1"/></marker></defs><path d="M153.754,239.183L188.120,204.817L224.754,239.183" style="fill: none; stroke-width: 21; stroke: rgb(255, 255, 255); stroke-opacity: 1; marker-start: url(&quot;#d&quot;);"/></g></g><rect rx="10" ry="10" x="229.514" y="278.769" transform="matrix(1.000000, 0.000000, 0.000000, 1.000000, 0.000000, 0.000000)" width="146.741" height="21.107" style="fill: rgb(255, 255, 255); fill-opacity: 1;" class="fills"/><g class="strokes"><rect rx="10" ry="10" x="229.514" y="278.769" transform="matrix(1.000000, 0.000000, 0.000000, 1.000000, 0.000000, 0.000000)" width="146.741" height="21.107" style="fill: none;" class="stroke-shape"/></g><path d="M226.754,240.853L261.120,206.487L297.754,240.853" class="fills"/><g class="strokes"><g class="stroke-shape"><defs><marker refX="3" fill-opacity="1" orient="auto-start-reverse" id="e" viewBox="0 0 6 6" fill="#fff" refY="3" markerWidth="6" markerHeight="6"><rect x="3" y="2.5" width=".5" height="1"/></marker></defs><path d="M226.754,240.853L261.120,206.487L297.754,240.853" style="fill: none; stroke-width: 21; stroke: rgb(255, 255, 255); stroke-opacity: 1; marker-start: url(&quot;#e&quot;);"/></g></g><rect rx="10" ry="10" x="218.458" y="325.003" transform="matrix(1.000000, 0.000000, 0.000000, 1.000000, 0.000000, 0.000000)" width="84.426" height="21.107" style="fill: rgb(255, 255, 255); fill-opacity: 1;" class="fills"/><g class="strokes"><rect rx="10" ry="10" x="218.458" y="325.003" transform="matrix(1.000000, 0.000000, 0.000000, 1.000000, 0.000000, 0.000000)" width="84.426" height="21.107" style="fill: none;" class="stroke-shape"/></g><rect rx="10" ry="10" x="324.494" y="325.003" transform="matrix(1.000000, 0.000000, 0.000000, 1.000000, 0.000000, 0.000000)" width="51.259" height="21.107" style="fill: rgb(255, 255, 255); fill-opacity: 1;" class="fills"/><g class="strokes"><rect rx="10" ry="10" x="324.494" y="325.003" transform="matrix(1.000000, 0.000000, 0.000000, 1.000000, 0.000000, 0.000000)" width="51.259" height="21.107" style="fill: none;" class="stroke-shape"/></g><rect rx="10" ry="10" x="64.951" y="325.109" transform="matrix(1.000000, 0.000000, 0.000000, 1.000000, 0.000000, 0.000000)" width="131.979" height="21" style="fill: rgb(255, 255, 255); fill-opacity: 1;" class="fills"/><g class="strokes"><rect rx="10" ry="10" x="64.951" y="325.109" transform="matrix(1.000000, 0.000000, 0.000000, 1.000000, 0.000000, 0.000000)" width="131.979" height="21" style="fill: none;" class="stroke-shape"/></g><path d="M296.922,239.853L331.287,205.487L367.922,239.853" class="fills"/><g class="strokes"><g class="stroke-shape"><defs><marker refX="3" fill-opacity="1" orient="auto-start-reverse" id="f" viewBox="0 0 6 6" fill="#fff" refY="3" markerWidth="6" markerHeight="6"><rect x="3" y="2.5" width=".5" height="1"/></marker></defs><path d="M296.922,239.853L331.287,205.487L367.922,239.853" style="fill: none; stroke-width: 21; stroke: rgb(255, 255, 255); stroke-opacity: 1; marker-start: url(&quot;#f&quot;); marker-end: url(&quot;#marker-render-19-round&quot;);"/></g></g></svg>