<svg width="448" xmlns="http://www.w3.org/2000/svg" height="448" id="screenshot-6cf4aab0-84b9-8093-8005-d518ba3a18b7" viewBox="0 0 448 448" xmlns:xlink="http://www.w3.org/1999/xlink" fill="none" version="1.1"><g id="shape-6cf4aab0-84b9-8093-8005-d518ba3a18b7"><g class="frame-container-wrapper"><g class="frame-container-blur"><g class="frame-container-shadows"><g fill="none"><g class="fills" id="fills-6cf4aab0-84b9-8093-8005-d518ba3a18b7"><rect rx="0" ry="0" x="0" y="0" width="448" height="448" transform="matrix(1.000000, 0.000000, 0.000000, 1.000000, 0.000000, 0.000000)" class="frame-background"/></g><g class="frame-children"><g id="shape-a29191d0-d8fc-11ec-95ad-175e4449088a" rx="0" ry="0"><g id="shape-65f7c3d0-d8fb-11ec-95ad-175e4449088a"><defs><linearGradient id="fill-color-gradient-render-3-0" x1="0.5" y1="0" x2="0.5" y2="1" gradientTransform=""><stop offset="0" stop-color="#ff512f" stop-opacity="1"/><stop offset="1" stop-color="#dd2476" stop-opacity="1"/></linearGradient><pattern patternUnits="userSpaceOnUse" x="0" y="0" width="448" height="448" id="fill-0-render-3"><g><rect width="448" height="448" style="fill: url(&quot;#fill-color-gradient-render-3-0&quot;);"/></g></pattern></defs><g class="fills" id="fills-65f7c3d0-d8fb-11ec-95ad-175e4449088a"><rect rx="0" ry="0" x="0" y="0" transform="matrix(1.000000, 0.000000, 0.000000, 1.000000, 0.000000, 0.000000)" width="448" height="448" fill="url(#fill-0-render-3)"/></g><g id="strokes-67b9dfbb-03b3-80ff-8006-60fc06c0696c-65f7c3d0-d8fb-11ec-95ad-175e4449088a" class="strokes"><g class="stroke-shape"><rect rx="0" ry="0" x="0" y="0" transform="matrix(1.000000, 0.000000, 0.000000, 1.000000, 0.000000, 0.000000)" width="448" height="448" style="fill: none;"/></g></g></g><g id="shape-949df1e0-d8fc-11ec-95ad-175e4449088a" rx="0" ry="0"><g id="shape-80851900-d8fb-11ec-95ad-175e4449088a"><g class="fills" id="fills-80851900-d8fb-11ec-95ad-175e4449088a"><rect rx="10" ry="10" x="71.60327916099106" y="101.89086294416245" transform="matrix(1.000000, 0.000000, 0.000000, 1.000000, 0.000000, 0.000000)" width="132" height="21" style="fill: rgb(255, 255, 255); fill-opacity: 1;"/></g><g id="strokes-67b9dfbb-03b3-80ff-8006-60fc06c119ea-80851900-d8fb-11ec-95ad-175e4449088a" class="strokes"><g class="stroke-shape"><rect rx="10" ry="10" x="71.60327916099106" y="101.89086294416245" transform="matrix(1.000000, 0.000000, 0.000000, 1.000000, 0.000000, 0.000000)" width="132" height="21" style="fill: none;"/></g></g></g><g id="shape-9dfb0f30-d8fb-11ec-95ad-175e4449088a"><g class="fills" id="fills-9dfb0f30-d8fb-11ec-95ad-175e4449088a"><rect rx="10" ry="10" x="236.72383753662558" y="147.89086294416245" transform="matrix(1.000000, 0.000000, 0.000000, 1.000000, 0.000000, 0.000000)" width="146.99999999999994" height="21" style="fill: rgb(255, 255, 255); fill-opacity: 1;"/></g><g id="strokes-67b9dfbb-03b3-80ff-8006-60fc06c16597-9dfb0f30-d8fb-11ec-95ad-175e4449088a" class="strokes"><g class="stroke-shape"><rect rx="10" ry="10" x="236.72383753662558" y="147.89086294416245" transform="matrix(1.000000, 0.000000, 0.000000, 1.000000, 0.000000, 0.000000)" width="146.99999999999994" height="21" style="fill: none;"/></g></g></g><g id="shape-8ffa01c0-d8fb-11ec-95ad-175e4449088a"><g class="fills" id="fills-8ffa01c0-d8fb-11ec-95ad-175e4449088a"><rect rx="10" ry="10" x="225.72383753662558" y="101.89086294416245" transform="matrix(1.000000, 0.000000, 0.000000, 1.000000, 0.000000, 0.000000)" width="83.99999999999994" height="21" style="fill: rgb(255, 255, 255); fill-opacity: 1;"/></g><g id="strokes-67b9dfbb-03b3-80ff-8006-60fc06c18c30-8ffa01c0-d8fb-11ec-95ad-175e4449088a" class="strokes"><g class="stroke-shape"><rect rx="10" ry="10" x="225.72383753662558" y="101.89086294416245" transform="matrix(1.000000, 0.000000, 0.000000, 1.000000, 0.000000, 0.000000)" width="83.99999999999994" height="21" style="fill: none;"/></g></g></g><g id="shape-98225320-d8fb-11ec-95ad-175e4449088a"><g class="fills" id="fills-98225320-d8fb-11ec-95ad-175e4449088a"><rect rx="10" ry="10" x="331.72383753662564" y="101.89086294416245" transform="matrix(1.000000, 0.000000, 0.000000, 1.000000, 0.000000, 0.000000)" width="51" height="21" style="fill: rgb(255, 255, 255); fill-opacity: 1;"/></g><g id="strokes-67b9dfbb-03b3-80ff-8006-60fc06c23235-98225320-d8fb-11ec-95ad-175e4449088a" class="strokes"><g class="stroke-shape"><rect rx="10" ry="10" x="331.72383753662564" y="101.89086294416245" transform="matrix(1.000000, 0.000000, 0.000000, 1.000000, 0.000000, 0.000000)" width="51" height="21" style="fill: none;"/></g></g></g><g id="shape-a0491de0-d8fb-11ec-95ad-175e4449088a"><g class="fills" id="fills-a0491de0-d8fb-11ec-95ad-175e4449088a"><rect rx="10" ry="10" x="152.72383753662558" y="148.89086294416245" transform="matrix(1.000000, 0.000000, 0.000000, 1.000000, 0.000000, 0.000000)" width="51" height="21" style="fill: rgb(255, 255, 255); fill-opacity: 1;"/></g><g id="strokes-67b9dfbb-03b3-80ff-8006-60fc06c27f67-a0491de0-d8fb-11ec-95ad-175e4449088a" class="strokes"><g class="stroke-shape"><rect rx="10" ry="10" x="152.72383753662558" y="148.89086294416245" transform="matrix(1.000000, 0.000000, 0.000000, 1.000000, 0.000000, 0.000000)" width="51" height="21" style="fill: none;"/></g></g></g><g id="shape-a32c40a0-d8fb-11ec-95ad-175e4449088a"><g class="fills" id="fills-a32c40a0-d8fb-11ec-95ad-175e4449088a"><rect rx="10" ry="10" x="71.60327916099106" y="147.89086294416245" transform="matrix(1.000000, 0.000000, 0.000000, 1.000000, 0.000000, 0.000000)" width="58" height="21" style="fill: rgb(255, 255, 255); fill-opacity: 1;"/></g><g id="strokes-67b9dfbb-03b3-80ff-8006-60fc06c2922c-a32c40a0-d8fb-11ec-95ad-175e4449088a" class="strokes"><g class="stroke-shape"><rect rx="10" ry="10" x="71.60327916099106" y="147.89086294416245" transform="matrix(1.000000, 0.000000, 0.000000, 1.000000, 0.000000, 0.000000)" width="58" height="21" style="fill: none;"/></g></g></g><g id="shape-36571e45-d8fc-11ec-95ad-175e4449088a"><g class="fills" id="fills-36571e45-d8fc-11ec-95ad-175e4449088a"><rect rx="10" ry="10" x="64.9512893669276" y="279.10913705583755" transform="matrix(1.000000, 0.000000, 0.000000, 1.000000, 0.000000, 0.000000)" width="58" height="21" style="fill: rgb(255, 255, 255); fill-opacity: 1;"/></g><g id="strokes-67b9dfbb-03b3-80ff-8006-60fc06c2ecd2-36571e45-d8fc-11ec-95ad-175e4449088a" class="strokes"><g class="stroke-shape"><rect rx="10" ry="10" x="64.9512893669276" y="279.10913705583755" transform="matrix(1.000000, 0.000000, 0.000000, 1.000000, 0.000000, 0.000000)" width="58" height="21" style="fill: none;"/></g></g></g><g id="shape-d53fec91-d8fb-11ec-95ad-175e4449088a"><g class="fills" id="fills-d53fec91-d8fb-11ec-95ad-175e4449088a"><path d="M83.587,239.853L117.952,205.487L154.587,239.853"/></g><g id="strokes-67b9dfbb-03b3-80ff-8006-60fc06c36892-d53fec91-d8fb-11ec-95ad-175e4449088a" class="strokes"><g class="stroke-shape"><defs><marker refX="3" fill-opacity="1" orient="auto-start-reverse" id="marker-render-12-round" viewBox="0 0 6 6" fill="#ffffff" refY="3" markerWidth="6" markerHeight="6"><path d="M 3 2.5 A 0.5 0.5 0 0 1 3 3.5 "/></marker></defs><path d="M83.587,239.853L117.952,205.487L154.587,239.853" style="fill: none; stroke-width: 21; stroke: rgb(255, 255, 255); stroke-opacity: 1; marker-start: url(&quot;#marker-render-12-round&quot;);"/></g></g></g><g id="shape-36571e44-d8fc-11ec-95ad-175e4449088a"><g class="fills" id="fills-36571e44-d8fc-11ec-95ad-175e4449088a"><rect rx="10" ry="10" x="145.9512893669276" y="278.10913705583755" transform="matrix(1.000000, 0.000000, 0.000000, 1.000000, 0.000000, 0.000000)" width="51" height="21" style="fill: rgb(255, 255, 255); fill-opacity: 1;"/></g><g id="strokes-67b9dfbb-03b3-80ff-8006-60fc06c3ffca-36571e44-d8fc-11ec-95ad-175e4449088a" class="strokes"><g class="stroke-shape"><rect rx="10" ry="10" x="145.9512893669276" y="278.10913705583755" transform="matrix(1.000000, 0.000000, 0.000000, 1.000000, 0.000000, 0.000000)" width="51" height="21" style="fill: none;"/></g></g></g><g id="shape-09789b60-d8fc-11ec-95ad-175e4449088a"><g class="fills" id="fills-09789b60-d8fc-11ec-95ad-175e4449088a"><path d="M153.754,239.183L188.120,204.817L224.754,239.183"/></g><g id="strokes-67b9dfbb-03b3-80ff-8006-60fc06c43915-09789b60-d8fc-11ec-95ad-175e4449088a" class="strokes"><g class="stroke-shape"><defs><marker refX="3" fill-opacity="1" orient="auto-start-reverse" id="marker-render-14-square" viewBox="0 0 6 6" fill="#ffffff" refY="3" markerWidth="6" markerHeight="6"><rect x="3" y="2.5" width="0.5" height="1"/></marker></defs><path d="M153.754,239.183L188.120,204.817L224.754,239.183" style="fill: none; stroke-width: 21; stroke: rgb(255, 255, 255); stroke-opacity: 1; marker-start: url(&quot;#marker-render-14-square&quot;);"/></g></g></g><g id="shape-36571e41-d8fc-11ec-95ad-175e4449088a"><g class="fills" id="fills-36571e41-d8fc-11ec-95ad-175e4449088a"><rect rx="10" ry="10" x="229.9512893669276" y="279.10913705583755" transform="matrix(1.000000, 0.000000, 0.000000, 1.000000, 0.000000, 0.000000)" width="146.99999999999994" height="21" style="fill: rgb(255, 255, 255); fill-opacity: 1;"/></g><g id="strokes-67b9dfbb-03b3-80ff-8006-60fc06c459d0-36571e41-d8fc-11ec-95ad-175e4449088a" class="strokes"><g class="stroke-shape"><rect rx="10" ry="10" x="229.9512893669276" y="279.10913705583755" transform="matrix(1.000000, 0.000000, 0.000000, 1.000000, 0.000000, 0.000000)" width="146.99999999999994" height="21" style="fill: none;"/></g></g></g><g id="shape-1509e150-d8fc-11ec-95ad-175e4449088a"><g class="fills" id="fills-1509e150-d8fc-11ec-95ad-175e4449088a"><path d="M226.754,240.853L261.120,206.487L297.754,240.853"/></g><g id="strokes-67b9dfbb-03b3-80ff-8006-60fc06c4aea1-1509e150-d8fc-11ec-95ad-175e4449088a" class="strokes"><g class="stroke-shape"><defs><marker refX="3" fill-opacity="1" orient="auto-start-reverse" id="marker-render-16-square" viewBox="0 0 6 6" fill="#ffffff" refY="3" markerWidth="6" markerHeight="6"><rect x="3" y="2.5" width="0.5" height="1"/></marker></defs><path d="M226.754,240.853L261.120,206.487L297.754,240.853" style="fill: none; stroke-width: 21; stroke: rgb(255, 255, 255); stroke-opacity: 1; marker-start: url(&quot;#marker-render-16-square&quot;);"/></g></g></g><g id="shape-36571e42-d8fc-11ec-95ad-175e4449088a"><g class="fills" id="fills-36571e42-d8fc-11ec-95ad-175e4449088a"><rect rx="10" ry="10" x="218.9512893669276" y="325.10913705583755" transform="matrix(1.000000, 0.000000, 0.000000, 1.000000, 0.000000, 0.000000)" width="84" height="21" style="fill: rgb(255, 255, 255); fill-opacity: 1;"/></g><g id="strokes-67b9dfbb-03b3-80ff-8006-60fc06c4c79b-36571e42-d8fc-11ec-95ad-175e4449088a" class="strokes"><g class="stroke-shape"><rect rx="10" ry="10" x="218.9512893669276" y="325.10913705583755" transform="matrix(1.000000, 0.000000, 0.000000, 1.000000, 0.000000, 0.000000)" width="84" height="21" style="fill: none;"/></g></g></g><g id="shape-36571e43-d8fc-11ec-95ad-175e4449088a"><g class="fills" id="fills-36571e43-d8fc-11ec-95ad-175e4449088a"><rect rx="10" ry="10" x="324.95128936692765" y="325.10913705583755" transform="matrix(1.000000, 0.000000, 0.000000, 1.000000, 0.000000, 0.000000)" width="51" height="21" style="fill: rgb(255, 255, 255); fill-opacity: 1;"/></g><g id="strokes-67b9dfbb-03b3-80ff-8006-60fc06c535b6-36571e43-d8fc-11ec-95ad-175e4449088a" class="strokes"><g class="stroke-shape"><rect rx="10" ry="10" x="324.95128936692765" y="325.10913705583755" transform="matrix(1.000000, 0.000000, 0.000000, 1.000000, 0.000000, 0.000000)" width="51" height="21" style="fill: none;"/></g></g></g><g id="shape-36571e40-d8fc-11ec-95ad-175e4449088a"><g class="fills" id="fills-36571e40-d8fc-11ec-95ad-175e4449088a"><rect rx="10" ry="10" x="64.9512893669276" y="325.10913705583755" transform="matrix(1.000000, 0.000000, 0.000000, 1.000000, 0.000000, 0.000000)" width="132" height="21" style="fill: rgb(255, 255, 255); fill-opacity: 1;"/></g><g id="strokes-67b9dfbb-03b3-80ff-8006-60fc06c57ca5-36571e40-d8fc-11ec-95ad-175e4449088a" class="strokes"><g class="stroke-shape"><rect rx="10" ry="10" x="64.9512893669276" y="325.10913705583755" transform="matrix(1.000000, 0.000000, 0.000000, 1.000000, 0.000000, 0.000000)" width="132" height="21" style="fill: none;"/></g></g></g><g id="shape-1845d270-d8fc-11ec-95ad-175e4449088a"><g class="fills" id="fills-1845d270-d8fc-11ec-95ad-175e4449088a"><path d="M296.922,239.853L331.287,205.487L367.922,239.853"/></g><g id="strokes-67b9dfbb-03b3-80ff-8006-60fc06c57ca6-1845d270-d8fc-11ec-95ad-175e4449088a" class="strokes"><g class="stroke-shape"><defs><marker refX="3" fill-opacity="1" orient="auto-start-reverse" id="marker-render-20-round" viewBox="0 0 6 6" fill="#ffffff" refY="3" markerWidth="6" markerHeight="6"><path d="M 3 2.5 A 0.5 0.5 0 0 1 3 3.5 "/></marker><marker refX="3" fill-opacity="1" orient="auto-start-reverse" id="marker-render-20-square" viewBox="0 0 6 6" fill="#ffffff" refY="3" markerWidth="6" markerHeight="6"><rect x="3" y="2.5" width="0.5" height="1"/></marker></defs><path d="M296.922,239.853L331.287,205.487L367.922,239.853" style="fill: none; stroke-width: 21; stroke: rgb(255, 255, 255); stroke-opacity: 1; marker-start: url(&quot;#marker-render-20-square&quot;); marker-end: url(&quot;#marker-render-20-round&quot;);"/></g></g></g></g></g></g></g></g></g></g></g></svg>