<svg width="448" xmlns="http://www.w3.org/2000/svg" height="448" id="screenshot-6cf4aab0-84b9-8093-8005-d518c44504df" viewBox="0 0 448 448" xmlns:xlink="http://www.w3.org/1999/xlink" fill="none" version="1.1"><g id="shape-6cf4aab0-84b9-8093-8005-d518c44504df"><g class="frame-container-wrapper"><g class="frame-container-blur"><g class="frame-container-shadows"><g fill="none"><g class="fills" id="fills-6cf4aab0-84b9-8093-8005-d518c44504df"><rect rx="0" ry="0" x="0" y="0" width="448" height="448" transform="matrix(1.000000, 0.000000, 0.000000, 1.000000, 0.000000, 0.000000)" class="frame-background"/></g><g class="frame-children"><g id="shape-ba8fcc20-0287-11ed-817f-774be3403b30" rx="0" ry="0"><g id="shape-ba8fcc21-0287-11ed-817f-774be3403b30"><defs><linearGradient id="fill-color-gradient-render-3-0" x1="0.5" y1="0" x2="0.5" y2="1" gradientTransform=""><stop offset="0" stop-color="#ff512f" stop-opacity="1"/><stop offset="1" stop-color="#dd2476" stop-opacity="1"/></linearGradient><pattern patternUnits="userSpaceOnUse" x="0" y="0" width="448" height="448" id="fill-0-render-3"><g><rect width="448" height="448" style="fill: url(&quot;#fill-color-gradient-render-3-0&quot;);"/></g></pattern></defs><g class="fills" id="fills-ba8fcc21-0287-11ed-817f-774be3403b30"><rect rx="50" ry="50" x="0" y="0" transform="matrix(1.000000, 0.000000, 0.000000, 1.000000, 0.000000, 0.000000)" width="448" height="448" fill="url(#fill-0-render-3)"/></g><g id="strokes-cd4d08ae-d56d-8096-8006-60fbfd530527-ba8fcc21-0287-11ed-817f-774be3403b30" class="strokes"><g class="stroke-shape"><rect rx="50" ry="50" x="0" y="0" transform="matrix(1.000000, 0.000000, 0.000000, 1.000000, 0.000000, 0.000000)" width="448" height="448" style="fill: none;"/></g></g></g><g id="shape-ba8fcc22-0287-11ed-817f-774be3403b30" rx="0" ry="0"><g id="shape-ba8fcc23-0287-11ed-817f-774be3403b30"><g class="fills" id="fills-ba8fcc23-0287-11ed-817f-774be3403b30"><rect rx="10" ry="10" x="71.60327916099106" y="101.89086294416245" transform="matrix(1.000000, 0.000000, 0.000000, 1.000000, 0.000000, 0.000000)" width="132" height="21" style="fill: rgb(255, 255, 255); fill-opacity: 1;"/></g><g id="strokes-cd4d08ae-d56d-8096-8006-60fbfd53f8d8-ba8fcc23-0287-11ed-817f-774be3403b30" class="strokes"><g class="stroke-shape"><rect rx="10" ry="10" x="71.60327916099106" y="101.89086294416245" transform="matrix(1.000000, 0.000000, 0.000000, 1.000000, 0.000000, 0.000000)" width="132" height="21" style="fill: none;"/></g></g></g><g id="shape-ba8fcc24-0287-11ed-817f-774be3403b30"><g class="fills" id="fills-ba8fcc24-0287-11ed-817f-774be3403b30"><rect rx="10" ry="10" x="236.72383753662552" y="147.89086294416245" transform="matrix(1.000000, 0.000000, 0.000000, 1.000000, 0.000000, 0.000000)" width="147" height="21" style="fill: rgb(255, 255, 255); fill-opacity: 1;"/></g><g id="strokes-cd4d08ae-d56d-8096-8006-60fbfd541ac4-ba8fcc24-0287-11ed-817f-774be3403b30" class="strokes"><g class="stroke-shape"><rect rx="10" ry="10" x="236.72383753662552" y="147.89086294416245" transform="matrix(1.000000, 0.000000, 0.000000, 1.000000, 0.000000, 0.000000)" width="147" height="21" style="fill: none;"/></g></g></g><g id="shape-ba8fcc25-0287-11ed-817f-774be3403b30"><g class="fills" id="fills-ba8fcc25-0287-11ed-817f-774be3403b30"><rect rx="10" ry="10" x="225.72383753662552" y="101.89086294416245" transform="matrix(1.000000, 0.000000, 0.000000, 1.000000, 0.000000, 0.000000)" width="84" height="21" style="fill: rgb(255, 255, 255); fill-opacity: 1;"/></g><g id="strokes-cd4d08ae-d56d-8096-8006-60fbfd54719a-ba8fcc25-0287-11ed-817f-774be3403b30" class="strokes"><g class="stroke-shape"><rect rx="10" ry="10" x="225.72383753662552" y="101.89086294416245" transform="matrix(1.000000, 0.000000, 0.000000, 1.000000, 0.000000, 0.000000)" width="84" height="21" style="fill: none;"/></g></g></g><g id="shape-ba8fcc26-0287-11ed-817f-774be3403b30"><g class="fills" id="fills-ba8fcc26-0287-11ed-817f-774be3403b30"><rect rx="10" ry="10" x="331.72383753662564" y="101.89086294416245" transform="matrix(1.000000, 0.000000, 0.000000, 1.000000, 0.000000, 0.000000)" width="50.999999999999886" height="21" style="fill: rgb(255, 255, 255); fill-opacity: 1;"/></g><g id="strokes-cd4d08ae-d56d-8096-8006-60fbfd5483aa-ba8fcc26-0287-11ed-817f-774be3403b30" class="strokes"><g class="stroke-shape"><rect rx="10" ry="10" x="331.72383753662564" y="101.89086294416245" transform="matrix(1.000000, 0.000000, 0.000000, 1.000000, 0.000000, 0.000000)" width="50.999999999999886" height="21" style="fill: none;"/></g></g></g><g id="shape-ba8fcc27-0287-11ed-817f-774be3403b30"><g class="fills" id="fills-ba8fcc27-0287-11ed-817f-774be3403b30"><rect rx="10" ry="10" x="152.72383753662552" y="148.89086294416245" transform="matrix(1.000000, 0.000000, 0.000000, 1.000000, 0.000000, 0.000000)" width="51" height="21" style="fill: rgb(255, 255, 255); fill-opacity: 1;"/></g><g id="strokes-cd4d08ae-d56d-8096-8006-60fbfd54d596-ba8fcc27-0287-11ed-817f-774be3403b30" class="strokes"><g class="stroke-shape"><rect rx="10" ry="10" x="152.72383753662552" y="148.89086294416245" transform="matrix(1.000000, 0.000000, 0.000000, 1.000000, 0.000000, 0.000000)" width="51" height="21" style="fill: none;"/></g></g></g><g id="shape-ba8fcc28-0287-11ed-817f-774be3403b30"><g class="fills" id="fills-ba8fcc28-0287-11ed-817f-774be3403b30"><rect rx="10" ry="10" x="71.60327916099106" y="147.89086294416245" transform="matrix(1.000000, 0.000000, 0.000000, 1.000000, 0.000000, 0.000000)" width="58" height="21" style="fill: rgb(255, 255, 255); fill-opacity: 1;"/></g><g id="strokes-cd4d08ae-d56d-8096-8006-60fbfd55251a-ba8fcc28-0287-11ed-817f-774be3403b30" class="strokes"><g class="stroke-shape"><rect rx="10" ry="10" x="71.60327916099106" y="147.89086294416245" transform="matrix(1.000000, 0.000000, 0.000000, 1.000000, 0.000000, 0.000000)" width="58" height="21" style="fill: none;"/></g></g></g><g id="shape-ba8fcc29-0287-11ed-817f-774be3403b30"><g class="fills" id="fills-ba8fcc29-0287-11ed-817f-774be3403b30"><rect rx="10" ry="10" x="64.95128936692754" y="279.10913705583755" transform="matrix(1.000000, 0.000000, 0.000000, 1.000000, 0.000000, 0.000000)" width="58" height="21" style="fill: rgb(255, 255, 255); fill-opacity: 1;"/></g><g id="strokes-cd4d08ae-d56d-8096-8006-60fbfd556657-ba8fcc29-0287-11ed-817f-774be3403b30" class="strokes"><g class="stroke-shape"><rect rx="10" ry="10" x="64.95128936692754" y="279.10913705583755" transform="matrix(1.000000, 0.000000, 0.000000, 1.000000, 0.000000, 0.000000)" width="58" height="21" style="fill: none;"/></g></g></g><g id="shape-ba8fcc2a-0287-11ed-817f-774be3403b30"><g class="fills" id="fills-ba8fcc2a-0287-11ed-817f-774be3403b30"><path d="M83.587,239.853L117.952,205.487L154.587,239.853"/></g><g id="strokes-cd4d08ae-d56d-8096-8006-60fbfd55cf65-ba8fcc2a-0287-11ed-817f-774be3403b30" class="strokes"><g class="stroke-shape"><defs><marker refX="3" fill-opacity="1" orient="auto-start-reverse" id="marker-render-12-round" viewBox="0 0 6 6" fill="#ffffff" refY="3" markerWidth="6" markerHeight="6"><path d="M 3 2.5 A 0.5 0.5 0 0 1 3 3.5 "/></marker></defs><path d="M83.587,239.853L117.952,205.487L154.587,239.853" style="fill: none; stroke-width: 21; stroke: rgb(255, 255, 255); stroke-opacity: 1; marker-start: url(&quot;#marker-render-12-round&quot;);"/></g></g></g><g id="shape-ba8fcc2b-0287-11ed-817f-774be3403b30"><g class="fills" id="fills-ba8fcc2b-0287-11ed-817f-774be3403b30"><rect rx="10" ry="10" x="145.95128936692754" y="278.10913705583755" transform="matrix(1.000000, 0.000000, 0.000000, 1.000000, 0.000000, 0.000000)" width="51" height="21" style="fill: rgb(255, 255, 255); fill-opacity: 1;"/></g><g id="strokes-cd4d08ae-d56d-8096-8006-60fbfd566219-ba8fcc2b-0287-11ed-817f-774be3403b30" class="strokes"><g class="stroke-shape"><rect rx="10" ry="10" x="145.95128936692754" y="278.10913705583755" transform="matrix(1.000000, 0.000000, 0.000000, 1.000000, 0.000000, 0.000000)" width="51" height="21" style="fill: none;"/></g></g></g><g id="shape-ba8fcc2c-0287-11ed-817f-774be3403b30"><g class="fills" id="fills-ba8fcc2c-0287-11ed-817f-774be3403b30"><path d="M153.754,239.183L188.120,204.817L224.754,239.183"/></g><g id="strokes-cd4d08ae-d56d-8096-8006-60fbfd568d74-ba8fcc2c-0287-11ed-817f-774be3403b30" class="strokes"><g class="stroke-shape"><defs><marker refX="3" fill-opacity="1" orient="auto-start-reverse" id="marker-render-14-square" viewBox="0 0 6 6" fill="#ffffff" refY="3" markerWidth="6" markerHeight="6"><rect x="3" y="2.5" width="0.5" height="1"/></marker></defs><path d="M153.754,239.183L188.120,204.817L224.754,239.183" style="fill: none; stroke-width: 21; stroke: rgb(255, 255, 255); stroke-opacity: 1; marker-start: url(&quot;#marker-render-14-square&quot;);"/></g></g></g><g id="shape-ba8fcc2d-0287-11ed-817f-774be3403b30"><g class="fills" id="fills-ba8fcc2d-0287-11ed-817f-774be3403b30"><rect rx="10" ry="10" x="229.95128936692754" y="279.10913705583755" transform="matrix(1.000000, 0.000000, 0.000000, 1.000000, 0.000000, 0.000000)" width="147" height="21" style="fill: rgb(255, 255, 255); fill-opacity: 1;"/></g><g id="strokes-cd4d08ae-d56d-8096-8006-60fbfd56fa06-ba8fcc2d-0287-11ed-817f-774be3403b30" class="strokes"><g class="stroke-shape"><rect rx="10" ry="10" x="229.95128936692754" y="279.10913705583755" transform="matrix(1.000000, 0.000000, 0.000000, 1.000000, 0.000000, 0.000000)" width="147" height="21" style="fill: none;"/></g></g></g><g id="shape-ba8fcc2e-0287-11ed-817f-774be3403b30"><g class="fills" id="fills-ba8fcc2e-0287-11ed-817f-774be3403b30"><path d="M226.754,240.853L261.120,206.487L297.754,240.853"/></g><g id="strokes-cd4d08ae-d56d-8096-8006-60fbfd572614-ba8fcc2e-0287-11ed-817f-774be3403b30" class="strokes"><g class="stroke-shape"><defs><marker refX="3" fill-opacity="1" orient="auto-start-reverse" id="marker-render-16-square" viewBox="0 0 6 6" fill="#ffffff" refY="3" markerWidth="6" markerHeight="6"><rect x="3" y="2.5" width="0.5" height="1"/></marker></defs><path d="M226.754,240.853L261.120,206.487L297.754,240.853" style="fill: none; stroke-width: 21; stroke: rgb(255, 255, 255); stroke-opacity: 1; marker-start: url(&quot;#marker-render-16-square&quot;);"/></g></g></g><g id="shape-ba8fcc2f-0287-11ed-817f-774be3403b30"><g class="fills" id="fills-ba8fcc2f-0287-11ed-817f-774be3403b30"><rect rx="10" ry="10" x="218.95128936692754" y="325.10913705583755" transform="matrix(1.000000, 0.000000, 0.000000, 1.000000, 0.000000, 0.000000)" width="84" height="21" style="fill: rgb(255, 255, 255); fill-opacity: 1;"/></g><g id="strokes-cd4d08ae-d56d-8096-8006-60fbfd5744ea-ba8fcc2f-0287-11ed-817f-774be3403b30" class="strokes"><g class="stroke-shape"><rect rx="10" ry="10" x="218.95128936692754" y="325.10913705583755" transform="matrix(1.000000, 0.000000, 0.000000, 1.000000, 0.000000, 0.000000)" width="84" height="21" style="fill: none;"/></g></g></g><g id="shape-ba8fcc30-0287-11ed-817f-774be3403b30"><g class="fills" id="fills-ba8fcc30-0287-11ed-817f-774be3403b30"><rect rx="10" ry="10" x="324.95128936692765" y="325.10913705583755" transform="matrix(1.000000, 0.000000, 0.000000, 1.000000, 0.000000, 0.000000)" width="50.999999999999886" height="21" style="fill: rgb(255, 255, 255); fill-opacity: 1;"/></g><g id="strokes-cd4d08ae-d56d-8096-8006-60fbfd57b7eb-ba8fcc30-0287-11ed-817f-774be3403b30" class="strokes"><g class="stroke-shape"><rect rx="10" ry="10" x="324.95128936692765" y="325.10913705583755" transform="matrix(1.000000, 0.000000, 0.000000, 1.000000, 0.000000, 0.000000)" width="50.999999999999886" height="21" style="fill: none;"/></g></g></g><g id="shape-ba8ff330-0287-11ed-817f-774be3403b30"><g class="fills" id="fills-ba8ff330-0287-11ed-817f-774be3403b30"><rect rx="10" ry="10" x="64.95128936692754" y="325.10913705583755" transform="matrix(1.000000, 0.000000, 0.000000, 1.000000, 0.000000, 0.000000)" width="132" height="21" style="fill: rgb(255, 255, 255); fill-opacity: 1;"/></g><g id="strokes-cd4d08ae-d56d-8096-8006-60fbfd57c471-ba8ff330-0287-11ed-817f-774be3403b30" class="strokes"><g class="stroke-shape"><rect rx="10" ry="10" x="64.95128936692754" y="325.10913705583755" transform="matrix(1.000000, 0.000000, 0.000000, 1.000000, 0.000000, 0.000000)" width="132" height="21" style="fill: none;"/></g></g></g><g id="shape-ba8ff331-0287-11ed-817f-774be3403b30"><g class="fills" id="fills-ba8ff331-0287-11ed-817f-774be3403b30"><path d="M296.922,239.853L331.287,205.487L367.922,239.853"/></g><g id="strokes-cd4d08ae-d56d-8096-8006-60fbfd581c0f-ba8ff331-0287-11ed-817f-774be3403b30" class="strokes"><g class="stroke-shape"><defs><marker refX="3" fill-opacity="1" orient="auto-start-reverse" id="marker-render-20-round" viewBox="0 0 6 6" fill="#ffffff" refY="3" markerWidth="6" markerHeight="6"><path d="M 3 2.5 A 0.5 0.5 0 0 1 3 3.5 "/></marker><marker refX="3" fill-opacity="1" orient="auto-start-reverse" id="marker-render-20-square" viewBox="0 0 6 6" fill="#ffffff" refY="3" markerWidth="6" markerHeight="6"><rect x="3" y="2.5" width="0.5" height="1"/></marker></defs><path d="M296.922,239.853L331.287,205.487L367.922,239.853" style="fill: none; stroke-width: 21; stroke: rgb(255, 255, 255); stroke-opacity: 1; marker-start: url(&quot;#marker-render-20-square&quot;); marker-end: url(&quot;#marker-render-20-round&quot;);"/></g></g></g></g></g></g></g></g></g></g></g></svg>